<svg width="41" height="13" viewBox="0 0 41 13" fill="none" xmlns="http://www.w3.org/2000/svg">
<path d="M3.5398 9.72237H0.982982L3.86366 0.995096H7.1023L9.98298 9.72237H7.42616L5.51707 3.39851H5.44889L3.5398 9.72237ZM3.06253 6.27919H7.86935V8.05191H3.06253V6.27919Z" fill="#060047"/>
<path d="M15.9883 0.995096H18.3576V6.58601C18.3576 7.25078 18.1985 7.82606 17.8804 8.31186C17.565 8.79481 17.1247 9.16839 16.5593 9.4326C15.994 9.69396 15.3377 9.82464 14.5906 9.82464C13.8377 9.82464 13.1786 9.69396 12.6133 9.4326C12.048 9.16839 11.6076 8.79481 11.2923 8.31186C10.9798 7.82606 10.8235 7.25078 10.8235 6.58601V0.995096H13.1929V6.38146C13.1929 6.65135 13.2525 6.89282 13.3718 7.10589C13.4912 7.31612 13.6559 7.48089 13.8661 7.60021C14.0792 7.71953 14.3207 7.77919 14.5906 7.77919C14.8633 7.77919 15.1048 7.71953 15.315 7.60021C15.5252 7.48089 15.69 7.31612 15.8093 7.10589C15.9287 6.89282 15.9883 6.65135 15.9883 6.38146V0.995096Z" fill="#060047"/>
<path d="M22.8416 9.72237H19.4837V0.995096H22.8076C23.7053 0.995096 24.4809 1.16981 25.1343 1.51924C25.7905 1.86583 26.2962 2.36583 26.6513 3.01924C27.0093 3.66981 27.1882 4.44964 27.1882 5.35873C27.1882 6.26782 27.0107 7.04907 26.6556 7.70248C26.3005 8.35305 25.7976 8.85305 25.147 9.20248C24.4965 9.54907 23.728 9.72237 22.8416 9.72237ZM21.853 7.71101H22.7564C23.1882 7.71101 23.5561 7.6414 23.8601 7.5022C24.1669 7.36299 24.3999 7.12294 24.559 6.78203C24.7209 6.44112 24.8019 5.96669 24.8019 5.35873C24.8019 4.75078 24.7195 4.27635 24.5547 3.93544C24.3928 3.59453 24.1541 3.35447 23.8388 3.21527C23.5263 3.07606 23.1428 3.00646 22.6882 3.00646H21.853V7.71101Z" fill="#060047"/>
<path d="M30.6538 0.995096V9.72237H28.2845V0.995096H30.6538Z" fill="#060047"/>
<path d="M40.2312 5.35873C40.2312 6.33032 40.0423 7.14993 39.6644 7.81754C39.2866 8.48231 38.7767 8.98657 38.1346 9.33032C37.4926 9.67123 36.7767 9.84169 35.9869 9.84169C35.1914 9.84169 34.4727 9.66981 33.8306 9.32606C33.1914 8.97947 32.6829 8.47379 32.3051 7.80902C31.9301 7.1414 31.7426 6.32464 31.7426 5.35873C31.7426 4.38714 31.9301 3.56896 32.3051 2.90419C32.6829 2.23657 33.1914 1.73231 33.8306 1.3914C34.4727 1.04765 35.1914 0.875778 35.9869 0.875778C36.7767 0.875778 37.4926 1.04765 38.1346 1.3914C38.7767 1.73231 39.2866 2.23657 39.6644 2.90419C40.0423 3.56896 40.2312 4.38714 40.2312 5.35873ZM37.7937 5.35873C37.7937 4.83601 37.7241 4.39566 37.5849 4.03771C37.4485 3.67691 37.2454 3.40419 36.9755 3.21953C36.7085 3.03203 36.3789 2.93828 35.9869 2.93828C35.5948 2.93828 35.2639 3.03203 34.994 3.21953C34.7269 3.40419 34.5238 3.67691 34.3846 4.03771C34.2483 4.39566 34.1801 4.83601 34.1801 5.35873C34.1801 5.88146 34.2483 6.32322 34.3846 6.68402C34.5238 7.04197 34.7269 7.3147 34.994 7.5022C35.2639 7.68686 35.5948 7.77919 35.9869 7.77919C36.3789 7.77919 36.7085 7.68686 36.9755 7.5022C37.2454 7.3147 37.4485 7.04197 37.5849 6.68402C37.7241 6.32322 37.7937 5.88146 37.7937 5.35873Z" fill="#060047"/>
<rect x="0.982982" y="10.6674" width="39.2482" height="2.05501" fill="url(#paint0_linear_26_38)"/>
<defs>
<linearGradient id="paint0_linear_26_38" x1="16.5688" y1="12.7224" x2="29.5081" y2="12.7224" gradientUnits="userSpaceOnUse">
<stop stop-color="#060047"/>
<stop offset="1" stop-color="#DC106C"/>
</linearGradient>
</defs>
</svg>