<svg width="46" height="28" viewBox="0 0 46 28" fill="none" xmlns="http://www.w3.org/2000/svg">
<path fill-rule="evenodd" clip-rule="evenodd" d="M4.92265 0.0994263H4.71555L4.56909 0.24588L1.43941 3.37556L1.29295 3.52202V3.72913V25.9531C0.994049 26.126 0.792953 26.4492 0.792953 26.8193C0.792953 27.3716 1.24066 27.8193 1.79295 27.8193C2.34525 27.8193 2.79295 27.3716 2.79295 26.8193C2.79295 26.4492 2.59186 26.126 2.29295 25.9531V3.93623L5.12976 1.09943H41.646L44.4828 3.93623V7.87727L42.2066 5.60114L42.0602 5.45468H41.8531H25.2986C25.1413 5.10875 24.7926 4.86824 24.3878 4.86824C23.8356 4.86824 23.3878 5.31595 23.3878 5.86824C23.3878 6.42053 23.8356 6.86824 24.3878 6.86824C24.7211 6.86824 25.0162 6.70526 25.1979 6.45468H41.646L44.4828 9.29149V13.8432C44.1839 14.0161 43.9828 14.3392 43.9828 14.7094C43.9828 15.2617 44.4305 15.7094 44.9828 15.7094C45.535 15.7094 45.9828 15.2617 45.9828 14.7094C45.9828 14.3392 45.7816 14.0161 45.4828 13.8432V9.08438V3.72913V3.52202L45.3363 3.37556L42.2066 0.24588L42.0602 0.0994263H41.8531H4.92265Z" fill="#DC106C"/>
</svg>