<svg width="72" height="14" viewBox="0 0 72 14" fill="none" xmlns="http://www.w3.org/2000/svg">
<path d="M8.36171 3.86121H5.9583C5.94125 3.66234 5.8958 3.48195 5.82193 3.32001C5.75091 3.15808 5.65148 3.01888 5.52364 2.9024C5.39864 2.78308 5.24665 2.69217 5.06767 2.62967C4.88869 2.56433 4.68557 2.53166 4.4583 2.53166C4.06057 2.53166 3.72392 2.62825 3.44835 2.82144C3.17563 3.01462 2.96824 3.2916 2.82619 3.6524C2.68699 4.0132 2.61739 4.44644 2.61739 4.95212C2.61739 5.48621 2.68841 5.93365 2.83046 6.29445C2.97534 6.6524 3.18415 6.92229 3.45688 7.1041C3.7296 7.28308 4.05773 7.37257 4.44125 7.37257C4.66 7.37257 4.85602 7.34558 5.02932 7.2916C5.20262 7.23479 5.35318 7.15382 5.48102 7.04871C5.60887 6.94359 5.71256 6.81717 5.7921 6.66945C5.87449 6.51888 5.92989 6.34984 5.9583 6.16234L8.36171 6.17939C8.3333 6.54871 8.2296 6.92513 8.05063 7.30865C7.87165 7.68933 7.61739 8.04161 7.28784 8.36547C6.96114 8.68649 6.55631 8.94501 6.07335 9.14104C5.5904 9.33706 5.02932 9.43507 4.39012 9.43507C3.58898 9.43507 2.87023 9.2632 2.23387 8.91945C1.60034 8.5757 1.09892 8.07001 0.729604 7.4024C0.363126 6.73479 0.179888 5.91803 0.179888 4.95212C0.179888 3.98053 0.367388 3.16234 0.742388 2.49757C1.11739 1.82996 1.62307 1.3257 2.25943 0.984787C2.8958 0.641037 3.60602 0.469162 4.39012 0.469162C4.94125 0.469162 5.44835 0.544446 5.91142 0.695014C6.37449 0.845582 6.78074 1.06575 7.13017 1.35553C7.4796 1.64246 7.76085 1.99615 7.97392 2.41661C8.18699 2.83706 8.31625 3.31859 8.36171 3.86121Z" fill="#060047"/>
<path d="M16.9015 9.31575V0.58848H19.2708V7.40666H22.7992V9.31575H16.9015Z" fill="#060047"/>
<path d="M28.9217 0.58848H31.291V6.17939C31.291 6.84416 31.1319 7.41945 30.8138 7.90524C30.4984 8.3882 30.0581 8.76178 29.4927 9.02598C28.9274 9.28734 28.2712 9.41803 27.524 9.41803C26.7712 9.41803 26.1121 9.28734 25.5467 9.02598C24.9814 8.76178 24.541 8.3882 24.2257 7.90524C23.9132 7.41945 23.7569 6.84416 23.7569 6.17939V0.58848H26.1263V5.97484C26.1263 6.24473 26.1859 6.48621 26.3052 6.69928C26.4246 6.9095 26.5893 7.07428 26.7996 7.19359C27.0126 7.31291 27.2541 7.37257 27.524 7.37257C27.7967 7.37257 28.0382 7.31291 28.2484 7.19359C28.4587 7.07428 28.6234 6.9095 28.7427 6.69928C28.8621 6.48621 28.9217 6.24473 28.9217 5.97484V0.58848Z" fill="#060047"/>
<path d="M32.4171 9.31575V0.58848H34.7864V7.40666H38.3148V9.31575H32.4171Z" fill="#060047"/>
<path d="M41.5396 9.31575H38.9828L41.8635 0.58848H45.1021L47.9828 9.31575H45.426L43.5169 2.99189H43.4487L41.5396 9.31575ZM41.0623 5.87257H45.8692V7.6453H41.0623V5.87257Z" fill="#060047"/>
<path d="M48.8234 9.31575V0.58848H52.5904C53.2381 0.58848 53.8049 0.706378 54.2907 0.942173C54.7765 1.17797 55.1543 1.51746 55.4242 1.96064C55.6941 2.40382 55.829 2.93507 55.829 3.55439C55.829 4.17939 55.6898 4.70638 55.4114 5.13535C55.1359 5.56433 54.7481 5.8882 54.2481 6.10695C53.7509 6.3257 53.1699 6.43507 52.5052 6.43507H50.2552V4.59416H52.0279C52.3063 4.59416 52.5435 4.56007 52.7395 4.49189C52.9384 4.42087 53.0904 4.30865 53.1955 4.15524C53.3035 4.00183 53.3574 3.80155 53.3574 3.55439C53.3574 3.30439 53.3035 3.10126 53.1955 2.94501C53.0904 2.78592 52.9384 2.66945 52.7395 2.59558C52.5435 2.51888 52.3063 2.48053 52.0279 2.48053H51.1927V9.31575H48.8234ZM53.937 5.31007L56.1188 9.31575H53.5449L51.4143 5.31007H53.937Z" fill="#060047"/>
<path d="M69.0084 3.31575C68.9856 3.03166 68.8791 2.81007 68.6888 2.65098C68.5013 2.49189 68.2158 2.41234 67.8322 2.41234C67.5879 2.41234 67.3876 2.44217 67.2314 2.50183C67.078 2.55865 66.9643 2.63678 66.8905 2.73621C66.8166 2.83564 66.7782 2.94928 66.7754 3.07712C66.7697 3.18223 66.7882 3.2774 66.8308 3.36263C66.8763 3.44501 66.9473 3.5203 67.0439 3.58848C67.1405 3.65382 67.264 3.71348 67.4146 3.76746C67.5652 3.82143 67.7442 3.86973 67.9515 3.91234L68.6675 4.06575C69.1504 4.16803 69.5638 4.30297 69.9075 4.47058C70.2513 4.6382 70.5325 4.83564 70.7513 5.06291C70.97 5.28734 71.1305 5.54018 71.2328 5.82143C71.3379 6.10268 71.3919 6.4095 71.3947 6.74189C71.3919 7.31575 71.2484 7.80155 70.9643 8.19928C70.6802 8.597 70.274 8.89956 69.7456 9.10695C69.22 9.31433 68.5879 9.41803 67.8493 9.41803C67.0908 9.41803 66.4288 9.30581 65.8635 9.08138C65.301 8.85695 64.8635 8.51178 64.551 8.04587C64.2413 7.57712 64.0851 6.97768 64.0822 6.24757H66.3322C66.3464 6.51462 66.4132 6.73905 66.5325 6.92087C66.6518 7.10269 66.8194 7.24047 67.0354 7.33422C67.2541 7.42797 67.514 7.47484 67.8152 7.47484C68.068 7.47484 68.2797 7.44359 68.4501 7.38109C68.6206 7.31859 68.7498 7.23195 68.8379 7.12115C68.926 7.01036 68.9714 6.88393 68.9743 6.74189C68.9714 6.60837 68.9274 6.49189 68.8422 6.39246C68.7598 6.29018 68.6234 6.19928 68.4331 6.11973C68.2427 6.03734 67.9856 5.96064 67.6618 5.88962L66.7925 5.70212C66.0197 5.5345 65.4104 5.25467 64.9643 4.86263C64.5212 4.46774 64.301 3.92939 64.3038 3.24757C64.301 2.69359 64.4487 2.20922 64.747 1.79445C65.0481 1.37683 65.4643 1.05155 65.9956 0.818594C66.5297 0.585639 67.1419 0.469162 67.8322 0.469162C68.5368 0.469162 69.1462 0.58706 69.6604 0.822855C70.1746 1.05865 70.5709 1.39104 70.8493 1.82001C71.1305 2.24615 71.2726 2.74473 71.2754 3.31575H69.0084Z" fill="#060047"/>
<path fill-rule="evenodd" clip-rule="evenodd" d="M14.3545 0.58847H10.4353V2.49756H14.3545V0.58847ZM10.4353 3.99756V5.90665H14.0307V3.99756H10.4353ZM10.4353 7.40665V9.31575L14.3375 9.31574V7.40665H10.4353Z" fill="#DC106C"/>
<path fill-rule="evenodd" clip-rule="evenodd" d="M62.1288 0.588486H58.2109V2.49758H62.1288V0.588486ZM58.2109 3.99758V5.90667H61.8049V3.99758H58.2109ZM58.2109 7.40667V9.31577L62.1117 9.31576V7.40667H58.2109Z" fill="#DC106C"/>
<rect x="0.179888" y="11.3977" width="71.2148" height="2.05501" fill="url(#paint0_linear_26_12)"/>
<defs>
<linearGradient id="paint0_linear_26_12" x1="28.4599" y1="13.4527" x2="51.9379" y2="13.4527" gradientUnits="userSpaceOnUse">
<stop stop-color="#060047"/>
<stop offset="1" stop-color="#DC106C"/>
</linearGradient>
</defs>
</svg>