<svg width="105" height="12" viewBox="0 0 105 12" fill="none" xmlns="http://www.w3.org/2000/svg">
<rect x="0.179888" y="9.74895" width="104.133" height="2.05501" fill="url(#paint0_linear_26_21)"/>
<path d="M8.36171 3.54546H5.9583C5.94125 3.34659 5.8958 3.1662 5.82193 3.00426C5.75091 2.84233 5.65148 2.70313 5.52364 2.58665C5.39864 2.46733 5.24665 2.37642 5.06767 2.31392C4.88869 2.24858 4.68557 2.21591 4.4583 2.21591C4.06057 2.21591 3.72392 2.3125 3.44835 2.50569C3.17563 2.69887 2.96824 2.97585 2.82619 3.33665C2.68699 3.69745 2.61739 4.13069 2.61739 4.63637C2.61739 5.17046 2.68841 5.6179 2.83046 5.9787C2.97534 6.33665 3.18415 6.60654 3.45688 6.78835C3.7296 6.96733 4.05773 7.05682 4.44125 7.05682C4.66 7.05682 4.85602 7.02983 5.02932 6.97585C5.20262 6.91904 5.35318 6.83807 5.48102 6.73296C5.60887 6.62784 5.71256 6.50142 5.7921 6.3537C5.87449 6.20313 5.92989 6.03409 5.9583 5.84659L8.36171 5.86364C8.3333 6.23296 8.2296 6.60938 8.05063 6.9929C7.87165 7.37358 7.61739 7.72586 7.28784 8.04972C6.96114 8.37074 6.55631 8.62926 6.07335 8.82529C5.5904 9.02131 5.02932 9.11932 4.39012 9.11932C3.58898 9.11932 2.87023 8.94745 2.23387 8.6037C1.60034 8.25995 1.09892 7.75426 0.729604 7.08665C0.363126 6.41904 0.179888 5.60228 0.179888 4.63637C0.179888 3.66478 0.367388 2.84659 0.742388 2.18182C1.11739 1.51421 1.62307 1.00995 2.25943 0.669037C2.8958 0.325287 3.60602 0.153412 4.39012 0.153412C4.94125 0.153412 5.44835 0.228696 5.91142 0.379264C6.37449 0.529832 6.78074 0.750003 7.13017 1.03978C7.4796 1.32671 7.76085 1.6804 7.97392 2.10086C8.18699 2.52131 8.31625 3.00284 8.36171 3.54546Z" fill="#060047"/>
<path d="M17.8912 4.63637C17.8912 5.60796 17.7023 6.42756 17.3244 7.09517C16.9466 7.75995 16.4366 8.26421 15.7946 8.60796C15.1525 8.94887 14.4366 9.11932 13.6469 9.11932C12.8514 9.11932 12.1327 8.94745 11.4906 8.6037C10.8514 8.2571 10.3429 7.75142 9.96504 7.08665C9.59004 6.41904 9.40254 5.60228 9.40254 4.63637C9.40254 3.66478 9.59004 2.84659 9.96504 2.18182C10.3429 1.51421 10.8514 1.00995 11.4906 0.669037C12.1327 0.325287 12.8514 0.153412 13.6469 0.153412C14.4366 0.153412 15.1525 0.325287 15.7946 0.669037C16.4366 1.00995 16.9466 1.51421 17.3244 2.18182C17.7023 2.84659 17.8912 3.66478 17.8912 4.63637ZM15.4537 4.63637C15.4537 4.11364 15.3841 3.6733 15.2449 3.31534C15.1085 2.95455 14.9054 2.68182 14.6355 2.49716C14.3685 2.30966 14.0389 2.21591 13.6469 2.21591C13.2548 2.21591 12.9239 2.30966 12.654 2.49716C12.3869 2.68182 12.1838 2.95455 12.0446 3.31534C11.9082 3.6733 11.84 4.11364 11.84 4.63637C11.84 5.15909 11.9082 5.60086 12.0446 5.96165C12.1838 6.31961 12.3869 6.59233 12.654 6.77983C12.9239 6.96449 13.2548 7.05682 13.6469 7.05682C14.0389 7.05682 14.3685 6.96449 14.6355 6.77983C14.9054 6.59233 15.1085 6.31961 15.2449 5.96165C15.3841 5.60086 15.4537 5.15909 15.4537 4.63637Z" fill="#060047"/>
<path d="M18.9874 0.27273H21.9363L23.9647 5.21591H24.067L26.0954 0.27273H29.0442V9H26.7261V3.95455H26.6579L24.7147 8.93182H23.317L21.3738 3.92046H21.3056V9H18.9874V0.27273Z" fill="#060047"/>
<path d="M30.1671 9V0.27273H33.9341C34.5819 0.27273 35.1486 0.400571 35.6344 0.656253C36.1202 0.911935 36.4981 1.27131 36.768 1.73438C37.0378 2.19745 37.1728 2.73864 37.1728 3.35796C37.1728 3.98296 37.0336 4.52415 36.7552 4.98154C36.4796 5.43892 36.0918 5.7912 35.5918 6.03835C35.0947 6.28551 34.5137 6.40909 33.8489 6.40909H31.5989V4.56818H33.3716C33.6501 4.56818 33.8873 4.51989 34.0833 4.4233C34.2822 4.32387 34.4341 4.18324 34.5393 4.00142C34.6472 3.8196 34.7012 3.60512 34.7012 3.35796C34.7012 3.10796 34.6472 2.89489 34.5393 2.71875C34.4341 2.53978 34.2822 2.40341 34.0833 2.30966C33.8873 2.21307 33.6501 2.16478 33.3716 2.16478H32.5364V9H30.1671Z" fill="#060047"/>
<path d="M43.2069 0.27273H45.5762V5.86364C45.5762 6.52841 45.4171 7.1037 45.0989 7.58949C44.7836 8.07245 44.3432 8.44603 43.7779 8.71023C43.2126 8.97159 42.5563 9.10228 41.8091 9.10228C41.0563 9.10228 40.3972 8.97159 39.8319 8.71023C39.2665 8.44603 38.8262 8.07245 38.5109 7.58949C38.1984 7.1037 38.0421 6.52841 38.0421 5.86364V0.27273H40.4114V5.65909C40.4114 5.92898 40.4711 6.17046 40.5904 6.38353C40.7097 6.59375 40.8745 6.75853 41.0847 6.87784C41.2978 6.99716 41.5393 7.05682 41.8091 7.05682C42.0819 7.05682 42.3234 6.99716 42.5336 6.87784C42.7438 6.75853 42.9086 6.59375 43.0279 6.38353C43.1472 6.17046 43.2069 5.92898 43.2069 5.65909V0.27273Z" fill="#060047"/>
<path d="M46.4636 2.18182V0.27273H54.0489V2.18182H51.4239V9H49.0886V2.18182H46.4636Z" fill="#060047"/>
<path d="M56.106 9H53.5492L56.4299 0.27273H59.6685L62.5492 9H59.9924L58.0833 2.67614H58.0151L56.106 9ZM55.6288 5.55682H60.4356V7.32955H55.6288V5.55682Z" fill="#060047"/>
<path d="M66.7477 9H63.3898V0.27273H66.7136C67.6113 0.27273 68.3869 0.447446 69.0403 0.796878C69.6966 1.14347 70.2023 1.64347 70.5574 2.29688C70.9153 2.94745 71.0943 3.72728 71.0943 4.63637C71.0943 5.54546 70.9167 6.32671 70.5616 6.98012C70.2065 7.63069 69.7037 8.13069 69.0531 8.48012C68.4025 8.82671 67.6341 9 66.7477 9ZM65.7591 6.98864H66.6625C67.0943 6.98864 67.4622 6.91904 67.7662 6.77983C68.073 6.64063 68.306 6.40057 68.465 6.05966C68.627 5.71875 68.7079 5.24432 68.7079 4.63637C68.7079 4.02841 68.6256 3.55398 68.4608 3.21307C68.2988 2.87216 68.0602 2.6321 67.7449 2.4929C67.4324 2.3537 67.0488 2.28409 66.5943 2.28409H65.7591V6.98864Z" fill="#060047"/>
<path d="M80.6451 4.63637C80.6451 5.60796 80.4562 6.42756 80.0783 7.09517C79.7005 7.75995 79.1905 8.26421 78.5485 8.60796C77.9064 8.94887 77.1905 9.11932 76.4008 9.11932C75.6053 9.11932 74.8866 8.94745 74.2445 8.6037C73.6053 8.2571 73.0968 7.75142 72.719 7.08665C72.344 6.41904 72.1565 5.60228 72.1565 4.63637C72.1565 3.66478 72.344 2.84659 72.719 2.18182C73.0968 1.51421 73.6053 1.00995 74.2445 0.669037C74.8866 0.325287 75.6053 0.153412 76.4008 0.153412C77.1905 0.153412 77.9064 0.325287 78.5485 0.669037C79.1905 1.00995 79.7005 1.51421 80.0783 2.18182C80.4562 2.84659 80.6451 3.66478 80.6451 4.63637ZM78.2076 4.63637C78.2076 4.11364 78.138 3.6733 77.9988 3.31534C77.8624 2.95455 77.6593 2.68182 77.3894 2.49716C77.1224 2.30966 76.7928 2.21591 76.4008 2.21591C76.0087 2.21591 75.6778 2.30966 75.4079 2.49716C75.1408 2.68182 74.9377 2.95455 74.7985 3.31534C74.6621 3.6733 74.594 4.11364 74.594 4.63637C74.594 5.15909 74.6621 5.60086 74.7985 5.96165C74.9377 6.31961 75.1408 6.59233 75.4079 6.77983C75.6778 6.96449 76.0087 7.05682 76.4008 7.05682C76.7928 7.05682 77.1224 6.96449 77.3894 6.77983C77.6593 6.59233 77.8624 6.31961 77.9988 5.96165C78.138 5.60086 78.2076 5.15909 78.2076 4.63637Z" fill="#060047"/>
<path d="M81.7413 9V0.27273H85.5084C86.1561 0.27273 86.7229 0.390628 87.2087 0.626423C87.6944 0.862219 88.0723 1.20171 88.3422 1.64489C88.6121 2.08807 88.747 2.61932 88.747 3.23864C88.747 3.86364 88.6078 4.39063 88.3294 4.8196C88.0538 5.24858 87.666 5.57245 87.166 5.7912C86.6689 6.00995 86.0879 6.11932 85.4231 6.11932H83.1731V4.27841H84.9459C85.2243 4.27841 85.4615 4.24432 85.6575 4.17614C85.8564 4.10512 86.0084 3.9929 86.1135 3.83949C86.2214 3.68608 86.2754 3.4858 86.2754 3.23864C86.2754 2.98864 86.2214 2.78551 86.1135 2.62926C86.0084 2.47017 85.8564 2.3537 85.6575 2.27983C85.4615 2.20313 85.2243 2.16478 84.9459 2.16478H84.1106V9H81.7413ZM86.855 4.99432L89.0368 9H86.4629L84.3322 4.99432H86.855Z" fill="#060047"/>
<path d="M101.926 3C101.904 2.71591 101.797 2.49432 101.607 2.33523C101.419 2.17614 101.134 2.09659 100.75 2.09659C100.506 2.09659 100.306 2.12642 100.149 2.18608C99.9959 2.2429 99.8823 2.32103 99.8084 2.42046C99.7346 2.51989 99.6962 2.63353 99.6934 2.76137C99.6877 2.86648 99.7062 2.96165 99.7488 3.04688C99.7942 3.12926 99.8653 3.20455 99.9618 3.27273C100.058 3.33807 100.182 3.39773 100.333 3.45171C100.483 3.50568 100.662 3.55398 100.87 3.59659L101.585 3.75C102.068 3.85228 102.482 3.98722 102.825 4.15483C103.169 4.32245 103.45 4.51989 103.669 4.74716C103.888 4.97159 104.048 5.22443 104.151 5.50568C104.256 5.78693 104.31 6.09375 104.313 6.42614C104.31 7 104.166 7.4858 103.882 7.88353C103.598 8.28125 103.192 8.58381 102.664 8.7912C102.138 8.99858 101.506 9.10228 100.767 9.10228C100.009 9.10228 99.3468 8.99006 98.7815 8.76563C98.219 8.5412 97.7815 8.19603 97.469 7.73012C97.1593 7.26137 97.003 6.66193 97.0002 5.93182H99.2502C99.2644 6.19887 99.3312 6.4233 99.4505 6.60512C99.5698 6.78694 99.7374 6.92472 99.9533 7.01847C100.172 7.11222 100.432 7.15909 100.733 7.15909C100.986 7.15909 101.198 7.12784 101.368 7.06534C101.539 7.00284 101.668 6.9162 101.756 6.8054C101.844 6.69461 101.889 6.56818 101.892 6.42614C101.889 6.29262 101.845 6.17614 101.76 6.07671C101.678 5.97443 101.541 5.88353 101.351 5.80398C101.161 5.72159 100.904 5.64489 100.58 5.57387L99.7104 5.38637C98.9377 5.21875 98.3283 4.93892 97.8823 4.54688C97.4391 4.15199 97.2189 3.61364 97.2218 2.93182C97.2189 2.37784 97.3667 1.89347 97.665 1.4787C97.9661 1.06108 98.3823 0.735798 98.9136 0.502844C99.4476 0.269889 100.06 0.153412 100.75 0.153412C101.455 0.153412 102.064 0.27131 102.578 0.507105C103.093 0.742901 103.489 1.07529 103.767 1.50426C104.048 1.9304 104.191 2.42898 104.193 3H101.926Z" fill="#060047"/>
<path fill-rule="evenodd" clip-rule="evenodd" d="M95.1632 0.392044H91.2575V2.30114H95.1632V0.392044ZM91.2575 3.80114V5.71023H94.8394V3.80114H91.2575ZM91.2575 7.21023V9.11932L95.1462 9.11932V7.21023H91.2575Z" fill="#DC106C"/>
<defs>
<linearGradient id="paint0_linear_26_21" x1="41.532" y1="11.804" x2="75.8623" y2="11.804" gradientUnits="userSpaceOnUse">
<stop stop-color="#060047"/>
<stop offset="1" stop-color="#DC106C"/>
</linearGradient>
</defs>
</svg>