<svg width="118" height="78" viewBox="0 0 118 78" fill="none" xmlns="http://www.w3.org/2000/svg">
<rect width="118" height="78" fill="white"/>
<path d="M2.18519 41.2982V11.4761L8.7322 6.88235L109.696 7.04681L115.807 12.6384V21.7906" stroke="#060047"/>
<path d="M4.37037 41.2941C4.37037 40.0271 3.39203 39 2.18519 39C0.978341 39 0 40.0271 0 41.2941C0 42.5611 0.978341 43.5882 2.18519 43.5882C3.39203 43.5882 4.37037 42.5611 4.37037 41.2941Z" fill="#060047"/>
<path d="M117.992 21.7961C117.992 20.5291 117.014 19.502 115.807 19.502C114.6 19.502 113.622 20.5291 113.622 21.7961C113.622 23.0631 114.6 24.0903 115.807 24.0903C117.014 24.0903 117.992 23.0631 117.992 21.7961Z" fill="#060047"/>
<path d="M0 55.3722C0 56.6392 0.97834 57.6663 2.18518 57.6663C3.39203 57.6663 4.37037 56.6392 4.37037 55.3722C4.37037 54.1052 3.39203 53.0781 2.18518 53.0781C0.97834 53.0781 0 54.1052 0 55.3722Z" fill="#060047"/>
<path d="M12.0409 28.6239V19.3716L15.2878 16.0596H42.6068" stroke="#060047"/>
<path d="M12.0306 27.5494H12.0305C11.4266 27.5494 10.9371 28.0634 10.9371 28.6974V28.6974C10.9371 29.3315 11.4266 29.8454 12.0305 29.8454H12.0306C12.6345 29.8454 13.124 29.3315 13.124 28.6974V28.6974C13.124 28.0634 12.6345 27.5494 12.0306 27.5494Z" fill="#060047"/>
<path d="M42.6069 14.9116H42.6069C42.0029 14.9116 41.5134 15.4256 41.5134 16.0596V16.0596C41.5134 16.6937 42.0029 17.2076 42.6069 17.2076H42.6069C43.2108 17.2076 43.7004 16.6937 43.7004 16.0596V16.0596C43.7004 15.4256 43.2108 14.9116 42.6069 14.9116Z" fill="#DC106C"/>
<path d="M13.5541 17.8218L15.2806 16.0539H42.6066" stroke="#DC106C"/>
<path d="M77.0254 65.7806H77.0254C77.6293 65.7806 78.1189 65.2666 78.1189 64.6326V64.6326C78.1189 63.9986 77.6293 63.4846 77.0254 63.4846H77.0254C76.4215 63.4846 75.9319 63.9986 75.9319 64.6326V64.6326C75.9319 65.2666 76.4215 65.7806 77.0254 65.7806Z" fill="#DC106C"/>
<path d="M115.922 36L116 65.0494L109.856 70H8.56856L2 65.0177V55.5251" stroke="#060047"/>
<path d="M114 35.5C114 36.8807 114.895 38 116 38C117.105 38 118 36.8807 118 35.5C118 34.1193 117.105 33 116 33C114.895 33 114 34.1193 114 35.5Z" fill="#060047"/>
<path d="M108 52V61.5731L104.707 65H77" stroke="#060047"/>
<path d="M108 53H108C108.552 53 109 52.5523 109 52V52C109 51.4477 108.552 51 108 51H108C107.448 51 107 51.4477 107 52V52C107 52.5523 107.448 53 108 53Z" fill="#060047"/>
<path d="M106 63L104.277 65H77" stroke="#DC106C"/>
<path d="M74.7106 34.4118V43.5882H73.1143L69.3117 37.8126H69.2476V43.5882H67.3996V34.4118H69.0215L72.7943 40.1828H72.8711V34.4118H74.7106Z" fill="#060047"/>
<path d="M66.3049 39C66.3049 39.9741 66.1289 40.8027 65.7772 41.486C65.4283 42.1693 64.9519 42.6912 64.3481 43.0518C63.7471 43.4094 63.0713 43.5882 62.3208 43.5882C61.5648 43.5882 60.8861 43.4079 60.2852 43.0474C59.6842 42.6869 59.2092 42.165 58.8603 41.4817C58.5113 40.7984 58.3368 39.9711 58.3368 39C58.3368 38.0259 58.5113 37.1973 58.8603 36.514C59.2092 35.8307 59.6842 35.3103 60.2852 34.9526C60.8861 34.5921 61.5648 34.4118 62.3208 34.4118C63.0713 34.4118 63.7471 34.5921 64.3481 34.9526C64.9519 35.3103 65.4283 35.8307 65.7772 36.514C66.1289 37.1973 66.3049 38.0259 66.3049 39ZM64.4811 39C64.4811 38.369 64.3911 37.837 64.211 37.4038C64.0338 36.9705 63.7832 36.6419 63.4591 36.418C63.135 36.1942 62.7557 36.0822 62.3208 36.0822C61.886 36.0822 61.5065 36.1942 61.1826 36.418C60.8585 36.6419 60.6064 36.9705 60.4265 37.4038C60.2492 37.837 60.1606 38.369 60.1606 39C60.1606 39.631 60.2492 40.163 60.4265 40.5962C60.6064 41.0295 60.8585 41.3581 61.1826 41.5819C61.5065 41.8058 61.886 41.9178 62.3208 41.9178C62.7557 41.9178 63.135 41.8058 63.4591 41.5819C63.7832 41.3581 64.0338 41.0295 64.211 40.5962C64.3911 40.163 64.4811 39.631 64.4811 39Z" fill="#060047"/>
<path d="M44.6651 43.5882V34.4118H46.5131V38.198H50.2646V34.4118H52.1084V43.5882H50.2646V39.7975H46.5131V43.5882H44.6651Z" fill="#060047"/>
<path d="M36.3916 36.0113V34.4118H43.5703V36.0113H40.8943V43.5882H39.0676V36.0113H36.3916Z" fill="#060047"/>
<path d="M35.2969 34.4118V43.5882H33.7007L29.8979 37.8126H29.8339V43.5882H27.9859V34.4118H29.6077L33.3806 40.1828H33.4574V34.4118H35.2969Z" fill="#060047"/>
<path d="M20.5119 43.5132H18.5477L21.5406 34.4118H23.9025L26.8911 43.5132H24.927L22.7554 36.4916H22.6877L20.5119 43.5132ZM20.3891 39.9358H25.0286V41.4378H20.3891V39.9358Z" fill="#060047"/>
<path d="M10.9259 43.5132V34.4118H14.3462C15.0037 34.4118 15.5639 34.5436 16.0267 34.8073C16.4895 35.068 16.8423 35.4309 17.085 35.8961C17.3305 36.3582 17.4533 36.8916 17.4533 37.496C17.4533 38.1004 17.3291 38.6336 17.0807 39.0958C16.8324 39.558 16.4726 39.918 16.0013 40.1757C15.5328 40.4335 14.9657 40.5624 14.2996 40.5624H12.1196V39.0203H14.0033C14.3561 39.0203 14.6468 38.9565 14.8753 38.8292C15.1067 38.6988 15.2789 38.5196 15.3918 38.2915C15.5075 38.0603 15.5653 37.7951 15.5653 37.496C15.5653 37.1937 15.5075 36.93 15.3918 36.7048C15.2789 36.4768 15.1067 36.3005 14.8753 36.1761C14.6439 36.0486 14.3504 35.985 13.9949 35.985H12.7589V43.5132H10.9259Z" fill="#060047"/>
<path fill-rule="evenodd" clip-rule="evenodd" d="M57.225 34.4118H53.2031V36.0113H57.225V34.4118ZM53.2031 38.198V39.7975H56.9219V38.198H53.2031ZM53.2031 41.9887V43.5882H57.242V41.9887H53.2031Z" fill="#DC106C"/>
<path d="M99.0411 43.5882V34.4118H100.889V38.198H104.641V34.4118H106.484V43.5882H104.641V39.7975H100.889V43.5882H99.0411Z" fill="#060047"/>
<path d="M76.8922 36.0113V34.4118H84.0708V36.0113H81.3949V43.5882H79.5682V36.0113H76.8922Z" fill="#060047"/>
<path fill-rule="evenodd" clip-rule="evenodd" d="M89.1846 34.4118H85.1628V36.0113H89.1846V34.4118ZM85.1628 38.198V39.7975H88.8816V38.198H85.1628ZM85.1628 41.9887V43.5882H89.2017V41.9887H85.1628Z" fill="#DC106C"/>
<path d="M97.9496 37.661H96.13C96.0968 37.4138 96.0289 37.1943 95.9265 37.0024C95.824 36.8076 95.6924 36.6419 95.5318 36.5053C95.3712 36.3686 95.1856 36.2639 94.9751 36.1912C94.7674 36.1186 94.5417 36.0822 94.2979 36.0822C93.8576 36.0822 93.474 36.197 93.1472 36.4267C92.8204 36.6536 92.567 36.985 92.387 37.4212C92.2069 37.8544 92.1169 38.3807 92.1169 39C92.1169 39.6367 92.2069 40.1717 92.387 40.605C92.5698 41.0382 92.8246 41.3654 93.1514 41.5863C93.4782 41.8073 93.8562 41.9178 94.2855 41.9178C94.5264 41.9178 94.7494 41.8844 94.9544 41.8175C95.1621 41.7506 95.3463 41.6531 95.5069 41.5253C95.6675 41.3944 95.8005 41.236 95.9057 41.0499C96.0138 40.8637 96.0885 40.6515 96.13 40.4131L97.9496 40.4218C97.9025 40.8319 97.7848 41.2272 97.5965 41.6082C97.411 41.9861 97.1603 42.3249 96.8446 42.6244C96.5316 42.9209 96.1578 43.1565 95.7229 43.331C95.2909 43.5024 94.8021 43.5882 94.2564 43.5882C93.4975 43.5882 92.819 43.4079 92.2208 43.0474C91.6254 42.6869 91.1546 42.165 90.8083 41.4817C90.4649 40.7984 90.2932 39.9711 90.2932 39C90.2932 38.0259 90.4676 37.1973 90.8166 36.514C91.1656 35.8307 91.6392 35.3103 92.2374 34.9526C92.8356 34.5921 93.5087 34.4118 94.2564 34.4118C94.7494 34.4118 95.2064 34.4845 95.6273 34.6298C96.0511 34.7753 96.4264 34.9875 96.7532 35.2666C97.08 35.5429 97.3458 35.8816 97.5508 36.2828C97.7585 36.6841 97.8915 37.1435 97.9496 37.661Z" fill="#060047"/>
</svg>