<svg width="108" height="68" viewBox="0 0 108 68" fill="none" xmlns="http://www.w3.org/2000/svg">
<path d="M2.00391 31.0039V5.00512L7.99609 1.00034L100.404 1.14371L105.997 6.01839V13.9973" stroke="#060047"/>
<rect x="0.11496" y="29.1229" width="4" height="4" rx="2" fill="#060047"/>
<rect x="103.997" y="12.0021" width="4" height="4" rx="2" fill="#060047"/>
<path d="M105.937 37.498L106.008 63.0117L100.403 67.3597L8 67.3597L2.00761 62.9838V54.6466" stroke="#060047"/>
<rect x="107.997" y="39.1556" width="4" height="4" rx="2" transform="rotate(-180 107.997 39.1556)" fill="#060047"/>
<rect x="4.08083" y="56.4288" width="4" height="4" rx="2" transform="rotate(-180 4.08083 56.4288)" fill="#060047"/>
<path d="M11.0244 19.9545V11.8884L13.9961 9.00103H39" stroke="#060047"/>
<rect x="10.0141" y="19.0178" width="2.00165" height="2.00165" rx="1.00082" fill="#060047"/>
<rect x="37.9992" y="8.00021" width="2.00165" height="2.00165" rx="1.00082" fill="#DC106C"/>
<path d="M12.4094 10.5373L13.9895 8.99609H38.9998" stroke="#DC106C"/>
<path d="M98.5543 51.5485V59.6146L95.5826 62.502H70.5787" stroke="#060047"/>
<rect x="99.5646" y="52.4852" width="2.00165" height="2.00165" rx="1.00082" transform="rotate(180 99.5646 52.4852)" fill="#060047"/>
<rect x="71.5795" y="63.5028" width="2.00165" height="2.00165" rx="1.00082" transform="rotate(180 71.5795 63.5028)" fill="#DC106C"/>
<path d="M97.1693 60.9657L95.5892 62.5069H70.5789" stroke="#DC106C"/>
<path d="M68.3933 29.1556V37.1556H66.9323L63.4519 32.1204H63.3933V37.1556H61.7019V29.1556H63.1863L66.6394 34.1868H66.7097V29.1556H68.3933Z" fill="#060047"/>
<path d="M60.6999 33.1556C60.6999 34.0048 60.5389 34.7272 60.217 35.3229C59.8976 35.9186 59.4616 36.3736 58.909 36.6879C58.3589 36.9997 57.7404 37.1556 57.0535 37.1556C56.3615 37.1556 55.7404 36.9984 55.1904 36.6841C54.6403 36.3698 54.2056 35.9148 53.8862 35.3191C53.5668 34.7234 53.4071 34.0022 53.4071 33.1556C53.4071 32.3064 53.5668 31.584 53.8862 30.9883C54.2056 30.3926 54.6403 29.9389 55.1904 29.6271C55.7404 29.3128 56.3615 29.1556 57.0535 29.1556C57.7404 29.1556 58.3589 29.3128 58.909 29.6271C59.4616 29.9389 59.8976 30.3926 60.217 30.9883C60.5389 31.584 60.6999 32.3064 60.6999 33.1556ZM59.0307 33.1556C59.0307 32.6055 58.9483 32.1417 58.7835 31.764C58.6213 31.3863 58.3919 31.0998 58.0953 30.9046C57.7987 30.7095 57.4515 30.6119 57.0535 30.6119C56.6555 30.6119 56.3082 30.7095 56.0117 30.9046C55.7151 31.0998 55.4844 31.3863 55.3197 31.764C55.1574 32.1417 55.0763 32.6055 55.0763 33.1556C55.0763 33.7057 55.1574 34.1695 55.3197 34.5472C55.4844 34.9249 55.7151 35.2114 56.0117 35.4065C56.3082 35.6017 56.6555 35.6993 57.0535 35.6993C57.4515 35.6993 57.7987 35.6017 58.0953 35.4065C58.3919 35.2114 58.6213 34.9249 58.7835 34.5472C58.9483 34.1695 59.0307 33.7057 59.0307 33.1556Z" fill="#060047"/>
<path d="M40.894 37.1556V29.1556H42.5854V32.4564H46.019V29.1556H47.7065V37.1556H46.019V33.8509H42.5854V37.1556H40.894Z" fill="#060047"/>
<path d="M33.3217 30.5501V29.1556H39.892V30.5501H37.4428V37.1556H35.7709V30.5501H33.3217Z" fill="#060047"/>
<path d="M32.3197 29.1556V37.1556H30.8588L27.3783 32.1204H27.3197V37.1556H25.6283V29.1556H27.1127L30.5658 34.1868H30.6361V29.1556H32.3197Z" fill="#060047"/>
<path d="M18.7877 37.0902H16.99L19.7292 29.1556H21.891L24.6263 37.0902H22.8286L20.8411 30.9688H20.7791L18.7877 37.0902ZM18.6753 33.9714H22.9216V35.2809H18.6753V33.9714Z" fill="#060047"/>
<path d="M10.0141 37.0902V29.1556H13.1445C13.7463 29.1556 14.259 29.2705 14.6826 29.5004C15.1062 29.7277 15.4291 30.0441 15.6512 30.4496C15.8759 30.8525 15.9883 31.3175 15.9883 31.8444C15.9883 32.3713 15.8746 32.8362 15.6473 33.2391C15.42 33.6421 15.0907 33.9559 14.6594 34.1806C14.2306 34.4053 13.7115 34.5177 13.1019 34.5177H11.1066V33.1733H12.8307C13.1536 33.1733 13.4196 33.1177 13.6288 33.0067C13.8406 32.893 13.9982 32.7368 14.1015 32.5379C14.2074 32.3364 14.2603 32.1052 14.2603 31.8444C14.2603 31.5809 14.2074 31.351 14.1015 31.1547C13.9982 30.9559 13.8406 30.8022 13.6288 30.6937C13.417 30.5826 13.1484 30.5271 12.823 30.5271H11.6917V37.0902H10.0141Z" fill="#060047"/>
<path fill-rule="evenodd" clip-rule="evenodd" d="M52.3895 29.1556H48.7085V30.5501H52.3895V29.1556ZM48.7085 32.4564V33.8509H52.1121V32.4564H48.7085ZM48.7085 35.7611V37.1556H52.4051V35.7611H48.7085Z" fill="#DC106C"/>
<path d="M90.6619 37.1556V29.1556H92.3533V32.4564H95.7869V29.1556H97.4744V37.1556H95.7869V33.8509H92.3533V37.1556H90.6619Z" fill="#060047"/>
<path d="M70.39 30.5501V29.1556H76.9603V30.5501H74.5111V37.1556H72.8392V30.5501H70.39Z" fill="#060047"/>
<path fill-rule="evenodd" clip-rule="evenodd" d="M81.6407 29.1556H77.9597V30.5501H81.6407V29.1556ZM77.9597 32.4564V33.8509H81.3634V32.4564H77.9597ZM77.9597 35.7611V37.1556H81.6563V35.7611H77.9597Z" fill="#DC106C"/>
<path d="M89.6629 31.9883H87.9975C87.9671 31.7728 87.905 31.5814 87.8112 31.4141C87.7174 31.2443 87.597 31.0998 87.45 30.9807C87.303 30.8616 87.1331 30.7703 86.9405 30.7069C86.7504 30.6436 86.5438 30.6119 86.3207 30.6119C85.9177 30.6119 85.5666 30.712 85.2675 30.9122C84.9684 31.11 84.7364 31.3989 84.5717 31.7792C84.4069 32.1569 84.3245 32.6157 84.3245 33.1556C84.3245 33.7107 84.4069 34.1771 84.5717 34.5548C84.739 34.9325 84.9722 35.2177 85.2713 35.4103C85.5704 35.603 85.9164 35.6993 86.3093 35.6993C86.5298 35.6993 86.7339 35.6702 86.9215 35.6119C87.1116 35.5536 87.2802 35.4686 87.4272 35.3571C87.5742 35.243 87.6959 35.1049 87.7922 34.9427C87.8911 34.7804 87.9595 34.5954 87.9975 34.3875L89.6629 34.3951C89.6198 34.7526 89.5121 35.0973 89.3397 35.4294C89.1699 35.7589 88.9405 36.0542 88.6515 36.3153C88.3651 36.5738 88.0229 36.7792 87.6249 36.9313C87.2295 37.0808 86.7821 37.1556 86.2827 37.1556C85.5881 37.1556 84.9671 36.9984 84.4196 36.6841C83.8746 36.3698 83.4437 35.9148 83.1268 35.3191C82.8125 34.7234 82.6553 34.0022 82.6553 33.1556C82.6553 32.3064 82.815 31.584 83.1344 30.9883C83.4538 30.3926 83.8873 29.9389 84.4348 29.6271C84.9823 29.3128 85.5983 29.1556 86.2827 29.1556C86.7339 29.1556 87.1522 29.219 87.5374 29.3457C87.9253 29.4725 88.2688 29.6575 88.5679 29.9008C88.867 30.1417 89.1103 30.437 89.2979 30.7868C89.488 31.1366 89.6097 31.5371 89.6629 31.9883Z" fill="#060047"/>
</svg>