<svg width="89" height="13" viewBox="0 0 89 13" fill="none" xmlns="http://www.w3.org/2000/svg">
<rect x="0.179888" y="10.3035" width="88.2401" height="2.05501" fill="url(#paint0_linear_26_35)"/>
<path fill-rule="evenodd" clip-rule="evenodd" d="M24.0131 9.38162L27.9955 9.38162V7.47252H24.0131V9.38162ZM24.0131 5.97252H27.6823V4.06343H24.0131V5.97252ZM24.0131 2.56343H28.0129V0.654343H24.0131V2.56343Z" fill="#DC106C"/>
<path fill-rule="evenodd" clip-rule="evenodd" d="M56.0313 9.38162L60.965 9.38162V7.47252H56.0313V9.38162ZM56.0313 5.97252H60.5743V4.06343H56.0313V5.97252ZM56.0313 2.56343H60.9867V0.654343H56.0313V2.56343Z" fill="#DC106C"/>
<path d="M2.85602 0.654337L4.6458 6.80775H4.71398L6.50375 0.654337H9.17989L6.29921 9.38161H3.06057L0.179888 0.654337H2.85602Z" fill="#060047"/>
<path d="M12.3898 0.654337V9.38161H10.0204V0.654337H12.3898Z" fill="#060047"/>
<path d="M16.8706 9.38161H13.5126V0.654337H16.8365C17.7342 0.654337 18.5098 0.829053 19.1632 1.17849C19.8194 1.52508 20.3251 2.02508 20.6802 2.67849C21.0382 3.32905 21.2172 4.10888 21.2172 5.01797C21.2172 5.92706 21.0396 6.70831 20.6845 7.36172C20.3294 8.01229 19.8265 8.51229 19.176 8.86172C18.5254 9.20831 17.7569 9.38161 16.8706 9.38161ZM15.8819 7.37025H16.7854C17.2172 7.37025 17.5851 7.30064 17.889 7.16144C18.1959 7.02224 18.4288 6.78218 18.5879 6.44127C18.7498 6.10036 18.8308 5.62593 18.8308 5.01797C18.8308 4.41002 18.7484 3.93559 18.5837 3.59468C18.4217 3.25377 18.1831 3.01371 17.8677 2.87451C17.5552 2.7353 17.1717 2.6657 16.7172 2.6657H15.8819V7.37025Z" fill="#060047"/>
<path d="M38.2328 5.01797C38.2328 5.98956 38.0439 6.80917 37.666 7.47678C37.2882 8.14155 36.7783 8.64581 36.1362 8.98956C35.4942 9.33047 34.7783 9.50093 33.9885 9.50093C33.193 9.50093 32.4743 9.32905 31.8322 8.9853C31.193 8.63871 30.6845 8.13303 30.3067 7.46826C29.9317 6.80064 29.7442 5.98388 29.7442 5.01797C29.7442 4.04638 29.9317 3.2282 30.3067 2.56343C30.6845 1.89581 31.193 1.39155 31.8322 1.05064C32.4743 0.706894 33.193 0.535019 33.9885 0.535019C34.7783 0.535019 35.4942 0.706894 36.1362 1.05064C36.7783 1.39155 37.2882 1.89581 37.666 2.56343C38.0439 3.2282 38.2328 4.04638 38.2328 5.01797ZM35.7953 5.01797C35.7953 4.49525 35.7257 4.05491 35.5865 3.69695C35.4501 3.33616 35.247 3.06343 34.9771 2.87877C34.7101 2.69127 34.3805 2.59752 33.9885 2.59752C33.5964 2.59752 33.2655 2.69127 32.9956 2.87877C32.7285 3.06343 32.5254 3.33616 32.3862 3.69695C32.2498 4.05491 32.1817 4.49525 32.1817 5.01797C32.1817 5.5407 32.2498 5.98246 32.3862 6.34326C32.5254 6.70121 32.7285 6.97394 32.9956 7.16144C33.2655 7.3461 33.5964 7.43843 33.9885 7.43843C34.3805 7.43843 34.7101 7.3461 34.9771 7.16144C35.247 6.97394 35.4501 6.70121 35.5865 6.34326C35.7257 5.98246 35.7953 5.5407 35.7953 5.01797Z" fill="#060047"/>
<path d="M42.9256 0.654337H45.2609V6.63729C45.258 7.20547 45.1145 7.70547 44.8305 8.13729C44.5492 8.56627 44.16 8.9015 43.6628 9.14297C43.1685 9.38161 42.5989 9.50093 41.954 9.50093C41.3944 9.50093 40.883 9.40434 40.4199 9.21115C39.9569 9.01513 39.5876 8.70831 39.312 8.2907C39.0364 7.87025 38.9001 7.32479 38.9029 6.65434H41.2722C41.2807 6.87309 41.3177 7.05775 41.383 7.20831C41.4512 7.35888 41.5449 7.47252 41.6643 7.54922C41.7864 7.62309 41.9341 7.66002 42.1074 7.66002C42.2836 7.66002 42.4313 7.62167 42.5506 7.54496C42.6728 7.46826 42.7651 7.35462 42.8276 7.20405C42.8901 7.05064 42.9228 6.86172 42.9256 6.63729V0.654337Z" fill="#060047"/>
<path d="M51.5485 0.654337H53.9178V6.24525C53.9178 6.91002 53.7587 7.4853 53.4405 7.9711C53.1252 8.45405 52.6849 8.82763 52.1195 9.09184C51.5542 9.3532 50.8979 9.48388 50.1508 9.48388C49.3979 9.48388 48.7388 9.3532 48.1735 9.09184C47.6082 8.82763 47.1678 8.45405 46.8525 7.9711C46.54 7.4853 46.3837 6.91002 46.3837 6.24525V0.654337H48.753V6.0407C48.753 6.31059 48.8127 6.55206 48.932 6.76513C49.0513 6.97536 49.2161 7.14013 49.4263 7.25945C49.6394 7.37877 49.8809 7.43843 50.1508 7.43843C50.4235 7.43843 50.665 7.37877 50.8752 7.25945C51.0854 7.14013 51.2502 6.97536 51.3695 6.76513C51.4888 6.55206 51.5485 6.31059 51.5485 6.0407V0.654337Z" fill="#060047"/>
<path d="M68.1763 3.53502C68.1394 3.38445 68.0812 3.25235 68.0016 3.13871C67.9221 3.02224 67.8226 2.92422 67.7033 2.84468C67.5868 2.76229 67.4505 2.70121 67.2942 2.66144C67.1408 2.61883 66.9718 2.59752 66.7871 2.59752C66.3894 2.59752 66.0499 2.69269 65.7687 2.88303C65.4903 3.07337 65.2772 3.34752 65.1295 3.70547C64.9846 4.06343 64.9121 4.49525 64.9121 5.00093C64.9121 5.51229 64.9817 5.94979 65.1209 6.31343C65.2601 6.67706 65.4675 6.95547 65.7431 7.14865C66.0187 7.34184 66.361 7.43843 66.7701 7.43843C67.1309 7.43843 67.4306 7.38587 67.6692 7.28076C67.9107 7.17564 68.0911 7.0265 68.2104 6.83331C68.3297 6.64013 68.3894 6.41286 68.3894 6.1515L68.7985 6.19411H66.8042V4.50661H70.6735V5.71684C70.6735 6.51229 70.5045 7.19269 70.1664 7.75803C69.8312 8.32053 69.3681 8.75235 68.7772 9.05348C68.1891 9.35178 67.5144 9.50093 66.753 9.50093C65.9036 9.50093 65.1579 9.32053 64.5158 8.95973C63.8738 8.59894 63.3724 8.08473 63.0116 7.41712C62.6536 6.74951 62.4746 5.95547 62.4746 5.03502C62.4746 4.31343 62.584 3.67422 62.8028 3.11741C63.0243 2.56059 63.3312 2.09042 63.7232 1.70689C64.1153 1.32053 64.5684 1.02934 65.0826 0.833314C65.5968 0.634451 66.1479 0.535019 66.736 0.535019C67.253 0.535019 67.7332 0.608883 68.1763 0.75661C68.6224 0.901496 69.0158 1.10888 69.3567 1.37877C69.7005 1.64581 69.9775 1.96258 70.1877 2.32905C70.3979 2.69553 70.5258 3.09752 70.5712 3.53502H68.1763Z" fill="#060047"/>
<path d="M80.2328 5.01797C80.2328 5.98956 80.0439 6.80917 79.666 7.47678C79.2882 8.14155 78.7783 8.64581 78.1362 8.98956C77.4942 9.33047 76.7783 9.50093 75.9885 9.50093C75.193 9.50093 74.4743 9.32905 73.8322 8.9853C73.193 8.63871 72.6845 8.13303 72.3067 7.46826C71.9317 6.80064 71.7442 5.98388 71.7442 5.01797C71.7442 4.04638 71.9317 3.2282 72.3067 2.56343C72.6845 1.89581 73.193 1.39155 73.8322 1.05064C74.4743 0.706894 75.193 0.535019 75.9885 0.535019C76.7783 0.535019 77.4942 0.706894 78.1362 1.05064C78.7783 1.39155 79.2882 1.89581 79.666 2.56343C80.0439 3.2282 80.2328 4.04638 80.2328 5.01797ZM77.7953 5.01797C77.7953 4.49525 77.7257 4.05491 77.5865 3.69695C77.4501 3.33616 77.247 3.06343 76.9771 2.87877C76.7101 2.69127 76.3805 2.59752 75.9885 2.59752C75.5964 2.59752 75.2655 2.69127 74.9956 2.87877C74.7285 3.06343 74.5254 3.33616 74.3862 3.69695C74.2498 4.05491 74.1817 4.49525 74.1817 5.01797C74.1817 5.5407 74.2498 5.98246 74.3862 6.34326C74.5254 6.70121 74.7285 6.97394 74.9956 7.16144C75.2655 7.3461 75.5964 7.43843 75.9885 7.43843C76.3805 7.43843 76.7101 7.3461 76.9771 7.16144C77.247 6.97394 77.4501 6.70121 77.5865 6.34326C77.7257 5.98246 77.7953 5.5407 77.7953 5.01797Z" fill="#060047"/>
<path d="M86.0336 3.38161C86.0109 3.09752 85.9043 2.87593 85.714 2.71684C85.5265 2.55775 85.241 2.4782 84.8574 2.4782C84.6131 2.4782 84.4128 2.50803 84.2566 2.56769C84.1032 2.62451 83.9895 2.70263 83.9157 2.80206C83.8418 2.9015 83.8035 3.01513 83.8006 3.14297C83.7949 3.24809 83.8134 3.34326 83.856 3.42849C83.9015 3.51087 83.9725 3.58616 84.0691 3.65434C84.1657 3.71968 84.2893 3.77934 84.4398 3.83331C84.5904 3.88729 84.7694 3.93559 84.9768 3.9782L85.6927 4.13161C86.1756 4.23388 86.589 4.36883 86.9327 4.53644C87.2765 4.70405 87.5577 4.9015 87.7765 5.12877C87.9952 5.3532 88.1557 5.60604 88.258 5.88729C88.3631 6.16854 88.4171 6.47536 88.4199 6.80775C88.4171 7.38161 88.2736 7.86741 87.9895 8.26513C87.7055 8.66286 87.2992 8.96542 86.7708 9.1728C86.2452 9.38019 85.6131 9.48388 84.8745 9.48388C84.116 9.48388 83.454 9.37167 82.8887 9.14723C82.3262 8.9228 81.8887 8.57763 81.5762 8.11172C81.2665 7.64297 81.1103 7.04354 81.1074 6.31343H83.3574C83.3717 6.58047 83.4384 6.80491 83.5577 6.98672C83.677 7.16854 83.8447 7.30633 84.0606 7.40008C84.2793 7.49383 84.5393 7.5407 84.8404 7.5407C85.0932 7.5407 85.3049 7.50945 85.4753 7.44695C85.6458 7.38445 85.7751 7.2978 85.8631 7.18701C85.9512 7.07621 85.9966 6.94979 85.9995 6.80775C85.9966 6.67422 85.9526 6.55775 85.8674 6.45831C85.785 6.35604 85.6486 6.26513 85.4583 6.18559C85.268 6.1032 85.0109 6.0265 84.687 5.95547L83.8177 5.76797C83.0449 5.60036 82.4356 5.32053 81.9895 4.92848C81.5464 4.5336 81.3262 3.99525 81.329 3.31343C81.3262 2.75945 81.4739 2.27508 81.7722 1.8603C82.0734 1.44269 82.4895 1.11741 83.0208 0.884451C83.5549 0.651496 84.1671 0.535019 84.8574 0.535019C85.562 0.535019 86.1714 0.652917 86.6856 0.888712C87.1998 1.12451 87.5961 1.45689 87.8745 1.88587C88.1557 2.31201 88.2978 2.81059 88.3006 3.38161H86.0336Z" fill="#060047"/>
<defs>
<linearGradient id="paint0_linear_26_35" x1="35.2208" y1="12.3585" x2="64.3116" y2="12.3585" gradientUnits="userSpaceOnUse">
<stop stop-color="#060047"/>
<stop offset="1" stop-color="#DC106C"/>
</linearGradient>
</defs>
</svg>